# xmcd
#
# Track frame offsets:
#	150
#	20327
#	33700
#	59240
#	80745
#	101216
#	120881
#	143170
#	172859
#	191010
#	216951
#	237245
#	260087
#	283214
#	297041
#	319405
#
# Disc length: 4505 seconds
#
# Revision: 1
# Processed by: cddbd v1.5.1PL0 Copyright (c) Steve Scherf et al.
# Submitted via: audiograbber 1.82.01
#
DISCID=fb119710
DTITLE=Zz Top - 2000-02-20 - Raleigh Arena,Raleigh, NC
DYEAR=1900
DGENRE=
TTITLE0=Zz Top - Got Me Under Pressure
TTITLE1=Zz Top - Waitin' For The Bus
TTITLE2=Zz Top - Jesus Just left Chicago
TTITLE3=Zz Top - Im Bad, Im Nationwide
TTITLE4=Zz Top - Pincushion
TTITLE5=Zz Top - Fearless Boogie
TTITLE6=Zz Top - I Loved A Woman
TTITLE7=Zz Top - Bang Bang
TTITLE8=Zz Top - Cheap Sunglasses
TTITLE9=Zz Top - Just Got Paid
TTITLE10=Zz Top - Gimme All Your Lovin'
TTITLE11=Zz Top - Sharp Dressed Man
TTITLE12=Zz Top - Legs
TTITLE13=Zz Top - Tube Snake Boogie
TTITLE14=Zz Top - La Grange
TTITLE15=Zz Top - Tush
EXTD=
EXTT0=
EXTT1=
EXTT2=
EXTT3=
EXTT4=
EXTT5=
EXTT6=
EXTT7=
EXTT8=
EXTT9=
EXTT10=
EXTT11=
EXTT12=
EXTT13=
EXTT14=
EXTT15=
PLAYORDER=
